<svg width="32" height="32" viewBox="0 0 32 32" fill="none" xmlns="http://www.w3.org/2000/svg">
<path d="M13.0599 16.5313C14.6293 16.6106 16.0478 17.2616 17.112 18.2799C18.0029 17.7218 19.0571 17.3985 20.1849 17.3984H23.5404C26.7405 17.3984 29.3344 19.9926 29.3346 23.1927V26.1875C29.3345 26.7397 28.8869 27.1875 28.3346 27.1875C27.7827 27.1871 27.3347 26.7395 27.3346 26.1875V23.1927C27.3344 21.0972 25.636 19.3984 23.5404 19.3984H20.1849C19.5097 19.3985 18.8771 19.5755 18.3281 19.8841C18.8001 20.7706 19.0677 21.7824 19.0677 22.8568V26.1875C19.0676 26.7397 18.6199 27.1875 18.0677 27.1875C17.5156 27.1874 17.0678 26.7396 17.0677 26.1875V22.8568C17.0677 20.5381 15.2469 18.6444 12.957 18.5286L12.7344 18.5234H9.0013C6.60807 18.5234 4.66797 20.4635 4.66797 22.8568V26.1875C4.66788 26.7397 4.2202 27.1875 3.66797 27.1875C3.11574 27.1875 2.66806 26.7397 2.66797 26.1875V22.8568C2.66797 19.359 5.5035 16.5234 9.0013 16.5234H12.7344L13.0599 16.5313Z" fill="#4A4A4A"/>
<path fill-rule="evenodd" clip-rule="evenodd" d="M21.8893 7.33594C24.2826 7.33594 26.2227 9.27604 26.2227 11.6693C26.2227 14.0625 24.2826 16.0026 21.8893 16.0026C19.4961 16.0026 17.556 14.0625 17.556 11.6693C17.556 9.27604 19.4961 7.33594 21.8893 7.33594ZM21.8893 9.33594C20.6007 9.33594 19.556 10.3806 19.556 11.6693C19.556 12.9579 20.6007 14.0026 21.8893 14.0026C23.178 14.0026 24.2227 12.9579 24.2227 11.6693C24.2227 10.3806 23.178 9.33594 21.8893 9.33594Z" fill="#4A4A4A"/>
<path fill-rule="evenodd" clip-rule="evenodd" d="M10.8685 5.33203C13.6299 5.33203 15.8685 7.57061 15.8685 10.332C15.8685 13.0935 13.6299 15.332 10.8685 15.332C8.10707 15.332 5.86849 13.0935 5.86849 10.332C5.86849 7.57061 8.10707 5.33203 10.8685 5.33203ZM10.8685 7.33203C9.21164 7.33203 7.86849 8.67518 7.86849 10.332C7.86849 11.9889 9.21164 13.332 10.8685 13.332C12.5253 13.332 13.8685 11.9889 13.8685 10.332C13.8685 8.67518 12.5253 7.33203 10.8685 7.33203Z" fill="#4A4A4A"/>
</svg>
